<svg xmlns="http://www.w3.org/2000/svg" height="640" width="640" version="1.1">
	<g transform="translate(0 -412.36)">
		<g>
			<path d="m172.64 1023.1q-19.336-16.992-18.75-45.117 1.1719-28.125 0-52.148-4.1016-34.57-2.3438-70.898 2.3438-36.328 6.4453-70.312 1.7578-15.234 5.8594-30.469 4.1016-15.234 5.8594-30.469 3.5156-18.164 15.234-43.945 11.719-26.367 15.82-52.148 4.6875-32.812-0.58594-62.695-4.6875-30.469-23.438-59.18-5.8594-8.2031-13.477-15.82-7.0312-7.6172-13.477-15.82-5.8594-8.2031-6.4453-21.094 0-13.477 15.82-12.891 7.0312 1.7578 12.305 8.7891 5.2734 7.0312 9.375 11.719 15.234 16.992 23.438 31.055 8.7891 13.477 17.578 34.57 18.164 49.219 9.375 99.609-8.2031 50.391-28.125 97.852-6.4453 19.922-11.133 47.461-4.6875 27.539-7.6172 48.633-4.6875 35.742-3.5156 70.898t6.4453 70.312q1.1719 9.9609 5.2734 26.953 4.6875 17.578 4.1016 24.023-1.1719 7.6171-8.7891 9.9609-7.0312 2.9297-14.062 2.9297l-1.1719-1.7578zm280.66 0q-11.719-8.2032-9.375-16.992 2.3438-8.7891 5.2734-20.508 2.9297-26.953 4.6875-53.32 2.3438-26.367 4.6875-52.734 0.58594-8.2031-1.1719-15.234-1.1719-7.6172-2.3438-15.234-1.1719-7.6172-0.58593-15.234 1.1719-7.6172 0.58593-15.234-1.7578-6.4453-4.1016-12.891-1.7578-6.4453-2.9297-12.305-0.58593-8.7891-1.1719-17.578-0.58594-9.375-1.1719-18.164-5.2734-33.984-19.922-65.625-14.648-32.227-20.508-65.625-2.3438-21.094-0.58594-43.359 2.3438-22.852 7.6172-42.773 5.8594-22.852 16.992-41.016 11.133-18.75 26.953-36.328 4.1016-5.8594 11.133-14.062 7.6172-8.7891 15.234-8.7891 2.9297 0 5.2734 2.3438 2.3438 2.3438 4.1016 4.1016 9.9609 12.891-7.0312 32.227-16.406 19.336-24.609 32.227-18.164 33.398-23.438 66.797-5.2734 32.812 4.6875 69.727 5.8594 19.336 14.648 38.086 9.375 18.75 12.891 38.086 3.5156 21.094 7.6172 40.43t7.0312 40.43q3.5156 31.641 2.9297 63.281-0.58594 31.641-1.1719 63.281 1.1719 21.68-1.7578 55.664-2.3438 33.984-28.711 38.086l-1.7578-1.7578z"/>
		</g>
	</g>
</svg>
